<svg width="167" height="36" viewBox="0 0 167 36" fill="none" xmlns="http://www.w3.org/2000/svg">
<path fill-rule="evenodd" clip-rule="evenodd" d="M27.8333 18C27.8333 25.0877 22.0877 30.8333 15 30.8333C7.91234 30.8333 2.16666 25.0877 2.16666 18C2.16666 10.9123 7.91234 5.16666 15 5.16666C22.0877 5.16666 27.8333 10.9123 27.8333 18ZM30 18C30 26.2843 23.2843 33 15 33C6.71573 33 0 26.2843 0 18C0 9.71573 6.71573 3 15 3C23.2843 3 30 9.71573 30 18ZM23.2759 11.2759C23.2759 12.1329 22.5812 12.8276 21.7242 12.8276C20.8672 12.8276 20.1725 12.1329 20.1725 11.2759C20.1725 10.4189 20.8672 9.72418 21.7242 9.72418C22.5812 9.72418 23.2759 10.4189 23.2759 11.2759ZM10.4879 19.209C11.1556 21.7009 13.717 23.1797 16.2089 22.512C18.7008 21.8443 20.1796 19.2829 19.5119 16.791C18.8442 14.2991 16.2828 12.8203 13.7909 13.488C11.299 14.1557 9.82015 16.7171 10.4879 19.209ZM8.39503 19.7698C9.37244 23.4175 13.1219 25.5823 16.7696 24.6049C20.4174 23.6274 22.5821 19.878 21.6047 16.2302C20.6273 12.5825 16.8779 10.4177 13.2301 11.3952C9.58236 12.3726 7.41762 16.122 8.39503 19.7698Z" fill="url(#paint0_linear_57_607)"/>
<path d="M46.7369 28.3958C45.2101 28.3958 43.8623 28.1225 42.6936 27.5759C41.5249 27.0292 40.6107 26.247 39.951 25.2291C39.2912 24.2112 38.9613 22.9859 38.9613 21.5533V20.7616H42.6371V21.5533C42.6371 22.7409 43.0047 23.6362 43.7398 24.2394C44.475 24.8238 45.474 25.116 46.7369 25.116C48.0187 25.116 48.9707 24.8615 49.5927 24.3525C50.2336 23.8436 50.5541 23.1933 50.5541 22.4016C50.5541 21.8549 50.3938 21.4119 50.0734 21.0727C49.7718 20.7334 49.3194 20.46 48.7162 20.2527C48.1318 20.0265 47.4155 19.8191 46.5673 19.6306L45.917 19.4893C44.5598 19.1877 43.3911 18.8107 42.4109 18.3583C41.4495 17.887 40.705 17.2744 40.1772 16.5204C39.6682 15.7664 39.4137 14.7862 39.4137 13.5798C39.4137 12.3734 39.6965 11.3461 40.262 10.4978C40.8463 9.63074 41.6569 8.97099 42.6936 8.5186C43.7492 8.04735 44.9839 7.81172 46.3976 7.81172C47.8114 7.81172 49.0649 8.05677 50.1582 8.54687C51.2704 9.01812 52.1374 9.73442 52.7595 10.6958C53.4004 11.6383 53.7208 12.8258 53.7208 14.2584V15.1066H50.0451V14.2584C50.0451 13.5044 49.8943 12.9012 49.5927 12.4488C49.31 11.9776 48.8953 11.6383 48.3486 11.4309C47.802 11.2047 47.1516 11.0916 46.3976 11.0916C45.2666 11.0916 44.4278 11.3084 43.8812 11.7419C43.3534 12.1566 43.0895 12.7316 43.0895 13.4667C43.0895 13.9568 43.212 14.3715 43.4571 14.7108C43.721 15.0501 44.1074 15.3328 44.6163 15.559C45.1253 15.7852 45.7756 15.9832 46.5673 16.1528L47.2176 16.2942C48.6314 16.5958 49.8566 16.9822 50.8934 17.4535C51.9489 17.9247 52.7689 18.5468 53.3533 19.3196C53.9376 20.0925 54.2298 21.0821 54.2298 22.2885C54.2298 23.4949 53.9188 24.5599 53.2967 25.4835C52.6935 26.3883 51.8264 27.1046 50.6954 27.6324C49.5833 28.1414 48.2638 28.3958 46.7369 28.3958ZM61.6504 28C60.7268 28 59.9728 27.7173 59.3884 27.1518C58.8229 26.5674 58.5402 25.7946 58.5402 24.8332V16.9162H55.0341V13.9757H58.5402V9.62132H62.1028V13.9757H65.9482V16.9162H62.1028V24.2112C62.1028 24.7767 62.3667 25.0594 62.8945 25.0594H65.6089V28H61.6504ZM68.3248 28V13.9757H71.8309V15.559H72.3399C72.5472 14.9935 72.8865 14.5788 73.3578 14.3149C73.8479 14.0511 74.4134 13.9191 75.0543 13.9191H76.7507V17.0859H74.9977C74.0929 17.0859 73.3483 17.3309 72.764 17.821C72.1796 18.2923 71.8875 19.0274 71.8875 20.0265V28H68.3248ZM84.5802 28.3958C83.1853 28.3958 81.9507 28.1037 80.8762 27.5193C79.8206 26.9161 78.9912 26.0773 78.388 25.0029C77.8037 23.9096 77.5115 22.6278 77.5115 21.1575V20.8182C77.5115 19.3479 77.8037 18.0755 78.388 17.0011C78.9724 15.9078 79.7924 15.0689 80.848 14.4846C81.9036 13.8814 83.1288 13.5798 84.5237 13.5798C85.8997 13.5798 87.0967 13.8908 88.1146 14.5129C89.1325 15.1161 89.9242 15.9643 90.4897 17.0576C91.0552 18.1321 91.3379 19.3856 91.3379 20.8182V22.034H81.1307C81.1684 22.9953 81.5266 23.7776 82.2052 24.3808C82.8837 24.984 83.7131 25.2856 84.6933 25.2856C85.6924 25.2856 86.4275 25.0688 86.8988 24.6353C87.37 24.2017 87.7282 23.7211 87.9732 23.1933L90.8855 24.7201C90.6216 25.2102 90.2352 25.7474 89.7263 26.3318C89.2362 26.8973 88.5764 27.3874 87.747 27.8021C86.9176 28.1979 85.862 28.3958 84.5802 28.3958ZM81.159 19.3762H87.7188C87.6434 18.5656 87.3135 17.9153 86.7291 17.4252C86.1636 16.9351 85.4191 16.69 84.4954 16.69C83.5341 16.69 82.7706 16.9351 82.2052 17.4252C81.6397 17.9153 81.2909 18.5656 81.159 19.3762ZM98.015 28.3958C97.016 28.3958 96.1206 28.2262 95.3289 27.8869C94.5372 27.5288 93.9057 27.0198 93.4345 26.3601C92.9821 25.6815 92.7559 24.8615 92.7559 23.9001C92.7559 22.9388 92.9821 22.1377 93.4345 21.4968C93.9057 20.837 94.5466 20.3469 95.3572 20.0265C96.1866 19.6872 97.1291 19.5175 98.1847 19.5175H102.03V18.7258C102.03 18.0661 101.823 17.5289 101.408 17.1142C100.993 16.6806 100.334 16.4638 99.4288 16.4638C98.5428 16.4638 97.8831 16.6712 97.4495 17.0859C97.016 17.4817 96.7332 18.0001 96.6013 18.641L93.3214 17.5383C93.5476 16.822 93.9057 16.1717 94.3958 15.5873C94.9048 14.9841 95.5739 14.5034 96.4033 14.1453C97.2516 13.7683 98.2789 13.5798 99.4853 13.5798C101.333 13.5798 102.793 14.0416 103.868 14.9653C104.942 15.8889 105.48 17.2273 105.48 18.9803V24.2112C105.48 24.7767 105.743 25.0594 106.271 25.0594H107.402V28H105.027C104.33 28 103.755 27.8304 103.302 27.4911C102.85 27.1518 102.624 26.6994 102.624 26.1339V26.1056H102.087C102.011 26.3318 101.842 26.6334 101.578 27.0104C101.314 27.3685 100.899 27.689 100.334 27.9717C99.7681 28.2545 98.9952 28.3958 98.015 28.3958ZM98.6371 25.5118C99.6361 25.5118 100.447 25.2385 101.069 24.6918C101.71 24.1263 102.03 23.3818 102.03 22.4581V22.1754H98.4391C97.7794 22.1754 97.261 22.3167 96.884 22.5995C96.507 22.8822 96.3185 23.2781 96.3185 23.787C96.3185 24.296 96.5164 24.7107 96.9123 25.0311C97.3081 25.3516 97.8831 25.5118 98.6371 25.5118ZM109.159 28V13.9757H112.665V15.5025H113.174C113.419 15.0312 113.824 14.626 114.39 14.2867C114.955 13.9285 115.7 13.7495 116.623 13.7495C117.622 13.7495 118.424 13.9474 119.027 14.3432C119.63 14.7202 120.092 15.2197 120.412 15.8418H120.921C121.242 15.2386 121.694 14.7391 122.278 14.3432C122.863 13.9474 123.692 13.7495 124.767 13.7495C125.634 13.7495 126.416 13.938 127.113 14.3149C127.83 14.6731 128.395 15.2292 128.81 15.9832C129.243 16.7183 129.46 17.6514 129.46 18.7824V28H125.898V19.0369C125.898 18.264 125.7 17.6891 125.304 17.3121C124.908 16.9162 124.352 16.7183 123.636 16.7183C122.825 16.7183 122.194 16.9822 121.741 17.51C121.308 18.019 121.091 18.7541 121.091 19.7155V28H117.528V19.0369C117.528 18.264 117.33 17.6891 116.934 17.3121C116.539 16.9162 115.983 16.7183 115.266 16.7183C114.456 16.7183 113.824 16.9822 113.372 17.51C112.938 18.019 112.721 18.7541 112.721 19.7155V28H109.159ZM132.444 28V13.9757H136.006V28H132.444ZM134.225 12.3357C133.584 12.3357 133.037 12.1284 132.585 11.7137C132.152 11.299 131.935 10.7523 131.935 10.0737C131.935 9.39512 132.152 8.84847 132.585 8.43377C133.037 8.01907 133.584 7.81172 134.225 7.81172C134.885 7.81172 135.431 8.01907 135.865 8.43377C136.298 8.84847 136.515 9.39512 136.515 10.0737C136.515 10.7523 136.298 11.299 135.865 11.7137C135.431 12.1284 134.885 12.3357 134.225 12.3357ZM141.424 28V16.9162H137.862V13.9757H141.424V11.3744C141.424 10.413 141.707 9.64959 142.273 9.08409C142.857 8.49975 143.611 8.20757 144.535 8.20757H148.21V11.1482H145.779C145.251 11.1482 144.987 11.4309 144.987 11.9964V13.9757H148.663V16.9162H144.987V28H141.424ZM152.1 33.655V30.5447H159.734C160.262 30.5447 160.526 30.262 160.526 29.6965V26.1621H160.017C159.866 26.4826 159.63 26.803 159.31 27.1235C158.989 27.4439 158.556 27.7078 158.009 27.9152C157.462 28.1225 156.765 28.2262 155.917 28.2262C154.823 28.2262 153.862 27.9812 153.033 27.4911C152.222 26.9821 151.591 26.2847 151.138 25.3987C150.686 24.5128 150.46 23.4949 150.46 22.345V13.9757H154.022V22.0623C154.022 23.1179 154.277 23.9096 154.786 24.4374C155.314 24.9652 156.058 25.2291 157.019 25.2291C158.113 25.2291 158.961 24.8709 159.564 24.1546C160.167 23.4195 160.469 22.4016 160.469 21.1009V13.9757H164.032V30.4882C164.032 31.4495 163.749 32.213 163.183 32.7785C162.618 33.3628 161.864 33.655 160.921 33.655H152.1Z" fill="white"/>
<defs>
<linearGradient id="paint0_linear_57_607" x1="15" y1="3" x2="15" y2="33" gradientUnits="userSpaceOnUse">
<stop stop-color="#877EFF"/>
<stop offset="0.461458" stop-color="#685DFF"/>
<stop offset="1" stop-color="#3121FF"/>
</linearGradient>
</defs>
</svg>
