<svg width="20" height="20" viewBox="0 0 20 20" fill="none" xmlns="http://www.w3.org/2000/svg">
<g id="Outline / Messages, Conversation / Plain 3">
<path id="Vector" fill-rule="evenodd" clip-rule="evenodd" d="M15.1197 3.02553C14.1448 3.19897 12.8303 3.63535 10.9856 4.25026L6.80949 5.64228C5.32613 6.13674 4.25173 6.49541 3.49286 6.81817C2.69947 7.15561 2.41724 7.39083 2.32558 7.5485C2.04324 8.03416 2.04324 8.63397 2.32557 9.11962C2.41724 9.27729 2.69947 9.51251 3.49286 9.84995C4.25173 10.1727 5.32613 10.5314 6.80949 11.0258C6.83291 11.0336 6.85604 11.0413 6.87888 11.0489C7.28403 11.1837 7.59899 11.2885 7.86994 11.4699C8.13098 11.6446 8.35521 11.8688 8.52997 12.1299C8.71135 12.4008 8.81612 12.7158 8.95088 13.1209C8.95848 13.1438 8.96617 13.1669 8.97398 13.1903C9.46843 14.6737 9.8271 15.7481 10.1499 16.507C10.4873 17.3003 10.7225 17.5826 10.8802 17.6742C11.3658 17.9566 11.9657 17.9566 12.4513 17.6742C12.609 17.5826 12.8442 17.3003 13.1816 16.507C13.5044 15.7481 13.8631 14.6737 14.3575 13.1903L15.7496 9.01427C16.3645 7.16953 16.8008 5.85506 16.9743 4.88008C17.1486 3.90046 17.0154 3.48433 16.7654 3.23439C16.5155 2.98444 16.0994 2.85126 15.1197 3.02553ZM14.8955 1.76481C15.9806 1.57177 16.958 1.61601 17.6709 2.32893C18.3838 3.04184 18.428 4.01919 18.235 5.10435C18.0431 6.18296 17.5752 7.58663 16.9828 9.36375L15.5621 13.6261C15.08 15.0722 14.7054 16.196 14.36 17.0081C14.0268 17.7915 13.6568 18.4546 13.0949 18.7813C12.2114 19.2949 11.1201 19.2949 10.2366 18.7813C9.67467 18.4546 9.3047 17.7915 8.97151 17.0081C8.62608 16.196 8.25151 15.0723 7.76946 13.6261L7.75918 13.5953C7.5903 13.0886 7.53882 12.9512 7.46588 12.8422C7.38426 12.7203 7.27952 12.6156 7.15759 12.5339C7.04865 12.461 6.91122 12.4095 6.40456 12.2406L6.37369 12.2303C4.92753 11.7483 3.80384 11.3737 2.99168 11.0283C2.20828 10.6951 1.54524 10.3251 1.21854 9.76319C0.704902 8.87967 0.704903 7.78846 1.21854 6.90493C1.54524 6.34298 2.20828 5.97301 2.99169 5.63981C3.80385 5.29438 4.92756 4.91982 6.37374 4.43776L10.6361 3.01698C12.4132 2.42459 13.8169 1.95669 14.8955 1.76481ZM14.7339 5.27094C14.9825 5.52235 14.9803 5.92773 14.7289 6.17638L11.3142 9.55343C11.0628 9.80208 10.6574 9.79983 10.4087 9.54842C10.1601 9.297 10.1623 8.89162 10.4138 8.64297L13.8285 5.26592C14.0799 5.01727 14.4853 5.01952 14.7339 5.27094Z" fill="#FFB620"/>
</g>
</svg>
